<?xml version="1.0" encoding="UTF-8"?>
<level>
  <readme/>
  <license>ff72caa36dca2baa10a8567e7c303f387789759e377b66904047b5cee6f69c2b</license>
  <exercise number="1">
    <scale>major</scale>
    <bpm>84</bpm>
    <lowestNote>1</lowestNote>
    <tonalities>1,2,3,4,5,6,7,8,9,10,11,12</tonalities>
    <notes>
      <note number="1" values="1,2,4,5,18" ticks="0" durationTicks="95" velocity="0.8"/>
      <note number="2" values="1,2,4,5,18" ticks="96" durationTicks="95" velocity="0.8"/>
      <note number="3" values="1,2,4,5,18" ticks="192" durationTicks="95" velocity="0.8"/>
      <note number="4" values="1,2,4,5,18" ticks="288" durationTicks="95" velocity="0.8"/>
    </notes>
  </exercise>
  <exercise number="2">
    <scale>major</scale>
    <bpm>90</bpm>
    <lowestNote>1</lowestNote>
    <tonalities>1,2,3,4,5,6,7,8,9,10,11,12</tonalities>
    <notes>
      <note number="1" values="1,2,4,5,18" ticks="0" durationTicks="95" velocity="0.8"/>
      <note number="2" values="1,2,4,5,18" ticks="96" durationTicks="95" velocity="0.8"/>
      <note number="3" values="1,2,4,5,18" ticks="192" durationTicks="95" velocity="0.8"/>
      <note number="4" values="1,2,4,5,18" ticks="288" durationTicks="95" velocity="0.8"/>
    </notes>
  </exercise>
  <exercise number="3">
    <scale>major</scale>
    <bpm>100</bpm>
    <lowestNote>1</lowestNote>
    <tonalities>1,2,3,4,5,6,7,8,9,10,11,12</tonalities>
    <notes>
      <note number="1" values="1,2,4,5,18" ticks="0" durationTicks="95" velocity="0.8"/>
      <note number="2" values="1,2,4,5,18" ticks="96" durationTicks="95" velocity="0.8"/>
      <note number="3" values="1,2,4,5,18" ticks="192" durationTicks="95" velocity="0.8"/>
      <note number="4" values="1,2,4,5,18" ticks="288" durationTicks="95" velocity="0.8"/>
    </notes>
  </exercise>
  <exercise number="4">
    <scale>major</scale>
    <bpm>120</bpm>
    <lowestNote>1</lowestNote>
    <tonalities>1,2,3,4,5,6,7,8,9,10,11,12</tonalities>
    <notes>
      <note number="1" values="1,2,4,5,18" ticks="0" durationTicks="95" velocity="0.8"/>
      <note number="2" values="1,2,4,5,18" ticks="96" durationTicks="95" velocity="0.8"/>
      <note number="3" values="1,2,4,5,18" ticks="192" durationTicks="95" velocity="0.8"/>
      <note number="4" values="1,2,4,5,18" ticks="288" durationTicks="95" velocity="0.8"/>
    </notes>
  </exercise>
  <exercise number="5">
    <scale>major</scale>
    <bpm>100</bpm>
    <lowestNote>1</lowestNote>
    <tonalities>1,2,3,4,5,6,7,8,9,10,11,12</tonalities>
    <notes>
      <note number="1" values="1,2,4,5,18" ticks="0" durationTicks="95" velocity="0.8"/>
      <note number="2" values="1,2,4,5,18" ticks="96" durationTicks="95" velocity="0.8"/>
      <note number="3" values="1,2,4,5,18" ticks="192" durationTicks="95" velocity="0.8"/>
      <note number="4" values="1,2,4,5,18" ticks="288" durationTicks="95" velocity="0.8"/>
    </notes>
  </exercise>
  <exercise number="6">
    <scale>major</scale>
    <bpm>100</bpm>
    <lowestNote>1</lowestNote>
    <tonalities>1,2,3,4,5,6,7,8,9,10,11,12</tonalities>
    <notes>
      <note number="1" values="1,2,4,5,18" ticks="0" durationTicks="95" velocity="0.8"/>
      <note number="2" values="1,2,4,5,18" ticks="96" durationTicks="95" velocity="0.8"/>
      <note number="3" values="1,2,4,5,18" ticks="192" durationTicks="95" velocity="0.8"/>
      <note number="4" values="1,2,4,5,18" ticks="288" durationTicks="95" velocity="0.8"/>
    </notes>
  </exercise>
  <exercise number="7">
    <scale>major</scale>
    <bpm>100</bpm>
    <lowestNote>1</lowestNote>
    <tonalities>1,2,3,4,5,6,7,8,9,10,11,12</tonalities>
    <notes>
      <note number="1" values="1,2,4,5,18" ticks="0" durationTicks="95" velocity="0.8"/>
      <note number="2" values="1,2,4,5,18" ticks="96" durationTicks="95" velocity="0.8"/>
      <note number="3" values="1,2,4,5,18" ticks="192" durationTicks="95" velocity="0.8"/>
      <note number="4" values="1,2,4,5,18" ticks="288" durationTicks="95" velocity="0.8"/>
    </notes>
  </exercise>
  <exercise number="8">
    <scale>major</scale>
    <bpm>100</bpm>
    <lowestNote>1</lowestNote>
    <tonalities>1,2,3,4,5,6,7,8,9,10,11,12</tonalities>
    <notes>
      <note number="1" values="1,2,4,5,18" ticks="0" durationTicks="95" velocity="0.8"/>
      <note number="2" values="1,2,4,5,18" ticks="96" durationTicks="95" velocity="0.8"/>
      <note number="3" values="1,2,4,5,18" ticks="192" durationTicks="95" velocity="0.8"/>
      <note number="4" values="1,2,4,5,18" ticks="288" durationTicks="95" velocity="0.8"/>
    </notes>
  </exercise>
  <exercise number="9">
    <scale>major</scale>
    <bpm>100</bpm>
    <lowestNote>1</lowestNote>
    <tonalities>1,2,3,4,5,6,7,8,9,10,11,12</tonalities>
    <notes>
      <note number="1" values="1,2,4,5,18" ticks="0" durationTicks="95" velocity="0.8"/>
      <note number="2" values="1,2,4,5,18" ticks="96" durationTicks="95" velocity="0.8"/>
      <note number="3" values="1,2,4,5,18" ticks="192" durationTicks="95" velocity="0.8"/>
      <note number="4" values="1,2,4,5,18" ticks="288" durationTicks="95" velocity="0.8"/>
    </notes>
  </exercise>
  <exercise number="10">
    <scale>major</scale>
    <bpm>74</bpm>
    <lowestNote>1</lowestNote>
    <tonalities>1,2,3,4,5,6,7,8,9,10,11,12</tonalities>
    <notes>
      <note number="1" values="1,2,4,5,18" ticks="0" durationTicks="95" velocity="0.8"/>
      <note number="2" values="1,2,4,5,18" ticks="96" durationTicks="95" velocity="0.8"/>
      <note number="3" values="1,2,4,5,18" ticks="192" durationTicks="95" velocity="0.8"/>
      <note number="4" values="1,2,4,5,18" ticks="288" durationTicks="95" velocity="0.8"/>
    </notes>
  </exercise>
</level>
